<?xml version="1.0" encoding="UTF-8"?>
<svg id="Layer_1" data-name="Layer 1" xmlns="http://www.w3.org/2000/svg" viewBox="0 0 1080 1080">
  <defs>
    <style>
      .cls-1 {
        fill: #431c20;
      }

      .cls-2 {
        fill: #aa1621;
      }

      .cls-3 {
        fill: #af1320;
      }

      .cls-4 {
        fill: #431d20;
      }

      .cls-5 {
        fill: #441c20;
      }

      .cls-6 {
        fill: #ae1520;
      }

      .cls-7 {
        fill: #ad171f;
      }

      .cls-8 {
        fill: #ae141f;
      }

      .cls-9 {
        fill: #ae151e;
      }

      .cls-10 {
        fill: #421d20;
      }

      .cls-11 {
        fill: #fefefe;
      }

      .cls-12 {
        fill: #ad1420;
      }

      .cls-13 {
        fill: #a46723;
      }

      .cls-14 {
        fill: #431c1f;
      }
    </style>
  </defs>
  <rect class="cls-11" x="-35.9" y="-39.03" width="1164.86" height="1164.86"/>
  <g>
    <path class="cls-10" d="M82.49,620.86c-2.28,11.34,2.94,21.95,13.6,24.57,14.35,3.53,33.33-20.19,37.87-40.82l.76-11.76c.17-2.68,2.69-4.89,4.78-5.17,9.09-1.21,18.79,21.29,5.68,38.46-9.45,12.37-23.22,21.66-37.81,27.71-9.69,4.02-20.8,4.5-30.2.26-11.32-5.1-17.36-16.72-18.37-28.94-2.71-32.69,23.65-58.76,55.31-68.28-17.92-14.46-14.19-32.89-1.07-49.84,17.43-21.41,56.04-40.83,79.23-26.46,9.35,5.79,13.34,16.04,10.6,26.87-3.76,14.88-14.1,27.8-27.88,34.56-7.91,3.88-17.25,2.96-23.03-3.03,8.58-12.16,22.44-18.14,30.19-32.17,2.62-4.75,4.8-12.32.58-16.6-12-12.16-45.95,9.18-56,38.26-3.47,10.04.39,19.29,8.87,24.53,2.83,1.75,5.58,4.28,5.33,8.02-29.36,6.69-52.41,29.77-58.46,59.83Z"/>
    <path class="cls-14" d="M185.67,618.91c-6,17.65-2.42,31.92-4.88,32.78-3.22,1.13-10.01-13.03-10.27-21.12-1.7-53.52,47.46-106.03,49.89-156.99.53-11.09,18.51,6.57,13.51,33.36-2.27,12.17-6,23.39-11.52,34.42l-16.1,32.19c-7.53,15.05-15.21,29.43-20.63,45.36Z"/>
    <path class="cls-13" d="M973.35,550.69l6.61,1.51c8.51,1.94,16.13,6.59,22.61,12.89,10.69,10.41,10,25.85-1.04,35.71-7.16,6.39-15.54,10.65-25.26,12.86-34.32,7.79-59.47,10.36-92.38-4.95-7.69-3.58-13.6-9-20.23-13.97-28.09,15.97-52.89,34.72-76.68,56.01l-63.91,57.17c-17.92,16.03-35.97,30.4-56.22,43.94,1.73,9.49-4.39,19.09-14.39,18.72-4.06-.15-9.09-3.9-13.44-1.91-51.09,23.35-108.76,30.96-160.74,6.78-10.46-4.86-19.52-11.21-28.64-18.51-17.78-14.22-31.09-33.48-37.45-55.34-7.13-24.47-1.54-50.35,17.54-67.24,28.09-24.86,67.13-24.38,103.06-21.83.7.56,1.73,1.39,1.55,2.07-.72,2.67-7.66,18.93-9.05,20.89l-2.7.58c-42.31-14.01-101,5.79-89.91,60.17,16.59,81.4,132.64,79.15,193.47,54.83,1.41-3.13,2.31-6.81,2.69-11.02,7.38-9.83,10.94-18.84,7.16-30.9-10.52-33.54-61.11-58.06-91.24-69.5-.72-.49-1.75-1.3-1.54-1.91.94-2.67,9.3-19.23,10.84-21.06l2.72-.39,38.05,20.28c26.46,14.41,56.47,43.76,63.76,73.77l3.08,21.68c14.58-9.72,27.58-20.09,40.54-31.47l39.37-34.59,14.07-13.07c28.8-26.74,59.08-51.16,92.71-71.75,5.16-3.16,7.89-6.9,7.16-13.49l.48-11.02c.47-3.24,11.71-2.86,14.48-2.27,1.68-.31,2.54.51,3.05,2.24-.93,3.23-.42,7.44,1.91,10.57,29.76-13.32,67.54-23.37,97.9-16.45ZM963.39,568.16c-27.51,1.47-53.87,6.46-80.31,17.54,13.14,9.95,28.31,13.24,43.76,14,18.21.89,64.48-4.11,63.76-17.79-.42-8.03-17.79-14.25-27.21-13.75Z"/>
    <path class="cls-14" d="M1021.2,441.34c-.78,10.26-3.78,19.25-8.28,28.47-12.37,25.31-30.06,47.38-52.52,64.16-14.74,11.01-36.89,20.08-49.71,7.46-14.77-14.53-11.12-29.13-2.73-46.81,12.37-26.06,30.7-48.6,53.35-66.35,16.74-13.12,42.47-22.07,55.45-7.38,4.56,5.16,4.94,13.89,4.44,20.44ZM999.14,424.19c-5.46-1.64-17.3,10.35-23.82,18.1-18.55,22.05-35,45.37-46.86,71.68-4.61,10.22-6.71,22.84-.23,25.31,15.24,5.81,53.7-60.41,64.63-79.49,6.93-12.09,12.23-33.82,6.27-35.6Z"/>
    <path class="cls-6" d="M894.1,323.85c-3.8-.88-7.79.77-11.83.91-13-6.37-26.98-2.15-35.66,9.27-.93-6.05-4.87-9.83-10.45-9.6-17.01.7-30.26,13.07-34.62,29.19-1.86,6.89-4.06,13.36-9.15,18.44l13.86-66.58c.39-1.86.76-3.32-.07-4.19-1.13-1.18-2.8-1.97-4.56-1.5l-15.98,4.24c-1.98.53-2.86,1.69-3.2,3.08-.54,2.24,1.7,3.26,4.18,3.51.92,5.99-.08,13.13-2.34,19.15-4.72-.89-9.2-1.83-12.93.21-10.29,5.61-15.48,16.48-19.87,27.44-.03-6.75.44-12.68-3.09-17.94-7.76-11.57-22.51-9.03-32.72-.24-12.37,10.64-19.5,29.21-12.4,44.16,2.85,6.01,8.79,9.88,15.29,8.26l8.52-2.12c10.02-6.25,17.16-14.43,22.31-25.3l1.11,14.49c.54,7.08,8.05,10.62,14.79,8.13,4.05-1.5,6.74-3.84,9.47-8.19,1.68,3.72,2.74,6.03,5.22,7.32,6.43,3.34,14.13-3.6,19.51-12.41,3.67,8.16,10.09,12.34,18.23,10.73,10.97-2.17,21.3-8.72,25.64-19.13-6.81-5.01-11.19,9.27-22.86,6.26-3.27-.84-5.36-9.3-1.89-10.57,9.89-3.6,18.41-6.94,25.01-16.86,1.09,5.94,2.88,10.17,8.16,14.32-4.48,3.54-8.21,7.62-8.44,13.08-.12,2.91,1.84,5.36,3.31,8.36-5.28,2.18-8.53,5.86-11.77,9.49-.62,5.54,1.11,9.8,6.42,12.23,16,7.3,40.26,3.74,44.7-10.38,2.02-6.45,1.63-13.46-3.01-17.95-7.94-7.68-20.51-4.7-26.19-10.06,16.92-2.44,36.14-6.91,33.26-24.15-.82-4.92,5.29-4.01,6.72-9.61.53-2.08-.04-4.86-2.69-5.48ZM721.36,383.9c-3.45.24-4.72-7.96-2.82-16.86,2.34-10.96,5.4-29.02,12.93-28.17,7.79.89-3.28,44.56-10.12,45.03ZM770.31,372.85c-3.15-1.04-3.33-4.62-3-7.54,1.4-12.44,6.72-31.86,12.27-29.59,1.4.57,2.03,2.45,2.15,4.48-.7,11.43-4.56,22.28-11.42,32.66ZM818.96,352.81c-.63-7.62,3.59-15.17,9.39-19.56,5.31,2.24-.8,16.91-9.39,19.56ZM865.73,384.77c3.58,1.05,8.52,4.57,5.73,9.06-3.21,5.16-17.04,7.47-21.63.47-1.55-2.36-1.97-6.69.43-8.71,4.57-3.84,10.11-2.4,15.47-.83ZM864.89,354.85c-5.68,1.14-3.2-27.46,5.6-26.09,6.6,1.03,0,24.97-5.6,26.09Z"/>
    <path class="cls-8" d="M701.34,326.9c-.71,10.17-8.12,17.24-17.11,21.8,8.48,3.72,13.68,10.15,13.69,18.7.01,12.89-10.17,22.47-22.59,24.88-11.97,2.33-23.59,1.74-35.67,2.85l-5.95.55c-1.2.11-2.22-.72-2.55-1.3-.39-.68-.21-2.37.65-3.06,12.19-9.75,11.74-28.53,14.59-43.8l5.04-27.1c-4.19-2-8.44-1.43-8.46-4.37-.02-3.3,9.25-5.05,17.26-5.09l26.82-.13c8.32,1.35,14.87,7.64,14.28,16.06ZM675.93,359.06c-1.33-2.99-6.22-5.36-9.29-4.66-3.3.75-4.32,4.64-4.78,7.47l-3.92,24.21c6.6,1.05,11.66-2.22,15.24-7.32,4-5.71,5.78-12.9,2.75-19.7ZM671.33,319.59c-4.45,9.67-6.24,25.11-2.57,25.98,4.95,1.18,17.87-16.96,9.45-25.34-1.29-1.28-5.96-2.65-6.88-.65Z"/>
    <path class="cls-3" d="M976.49,328.88c-17.83,13.05-17.98,42.8-21.67,43.32l-10.83,1.51c-1.5.21-2.84-.58-3.51-1.47-.75-1-.58-2.59-.24-4.32l8.2-41.79c-2.51-.21-4.98-1.09-5.4-2.35-.47-1.42.99-3.9,2.68-4.34l16.23-4.22c1.74-.45,4.68-.18,5.17,1.65,1,3.73-.57,7.13-.55,11.37l11.68-12.2c2.09-2.19,6.77-3.63,9.84-2.17,7.08,3.38,8.52,11.47,6.59,18.47l-6.26,22.7c-.94,1.98,1.95,2.91,1.96.43.74-1.89,2.37-3.17,3.5-3.17,2.03,0,3.43,2.27,2.62,4.59-4.43,12.63-18.34,18.36-23.19,12.88-7.49-8.47,4.31-25.83,3.19-40.88Z"/>
    <path class="cls-2" d="M942.94,290.2c-5.73,10.2-15.06,26.16-23.35,23.85-2.53-1.6-.29-6.47.56-8.93,1.42-4.05.7-10.68,4.72-13.13,4.71-2.87,11.9-2.44,18.06-1.79Z"/>
    <path class="cls-12" d="M907.57,377.24c-7.42.28-12.23-4.13-14.12-10.3-3.01-9.84-.63-19.68,3.45-28.89,7.28-16.45,25.25-25.04,37.73-17.3,3.97,2.46,7.83,7.86,7.88,14.11.16,20.69-14.17,41.6-34.94,42.38ZM919.68,325.65c-9.68,13.98-13.96,42.71-7.7,43.79,8.12,1.4,12-24.59,13.12-38.21.2-2.47-3.85-7.86-5.42-5.57Z"/>
    <g>
      <path class="cls-7" d="M253.08,667.91c-.73,5.96,1.74,9.2,2.8,13.79,1.77,7.63-7.26,15.24-14.49,14.57-15.33-1.41-22.88-14.29-21.57-28.55,1.66-18.14,4.42-35.19,10.06-52.7,7.19-22.34,15.7-43.21,24.82-64.84,13.99-34.03,29.26-68.27,31.14-106.18-30.94,5.57-75.92,9.83-101.58-5.75-6.91-4.19-12.99-10.48-15.12-18.55-2.54-9.63-2.58-21.31,2.12-30.5,10.39-20.34,23.69-38.34,38.37-55.44,1.19-1.39,3.7-1.67,4.52-1s1.32,3.16.34,4.6c-10.31,15.13-24.06,35.78-26.23,53.15-1.41,11.26,4.41,20.62,15,24.38,23.48,8.32,62.72,1.84,90.25-.54,10.47-.9,22.07,1.09,29.31,8.62,14.91,15.51,5.56,50.69-1.91,72.4-17.37,50.44-42.46,94.8-60.22,142.58-3.6,9.68-6.29,19.24-7.61,29.96Z"/>
      <path class="cls-9" d="M357.05,590.28c33.76-46.04,65.38-101.46,80.11-155.92,3.84-14.18,5.35-27.94,4.22-42.7-.13-1.75.27-4.04,1.3-4.94.85-.75,2.8-1.71,4.59-1.76l38.1-1.01c26.8-.71,59.89.65,82.94-12.41,7.07-4.01,12.8-10.55,12.89-19.08.09-8.79-3.53-17.29-9.1-23.97l-14.29-17.11-15.12-14.39c-1.5-1.43,2.07-6.48,4.19-5.24,17.49,10.24,33.16,22.72,46.64,37.6,14.62,16.14,20.44,36.94,5.12,53.71-11,10.51-24.29,17.31-39.11,22.42-29.92,10.33-60.9,14.77-93.01,16.98-19.56,54.17-43.66,108.11-76.18,155.74-31.01,46.08-73.72,88.97-124.73,111.86-3.65-1.16-5.11-9.04-2.05-10.83,13.34-7.79,25.36-15.82,36.83-26.26,20.97-19.08,39.49-39.29,56.64-62.69Z"/>
    </g>
    <path class="cls-5" d="M449.4,588.37c.57-.51,1.64-1.5,2.41-2.33,8.19-7.94,13.82-17.5,20.22-27.12l32.21-48.45c2.57-3.86,5.12-7.31,9.09-10.07,5.88,11.12,5.61,23.5,1.51,35.33l-16.87,37.73c-9.29,20.79-2.42,32.57-6.48,35.83-7.05,5.66-22.34-12.17-24.32-27.29-13.29,16.69-29.93,38.47-45.95,21.72-4.79-12.62-5.48-25.85-2-39.6,8.74-34.54,31.37-64.63,61.11-84.09,12.25-8.02,25.47-12,39.71-12.17,7.73-.09,13.75,3.59,16.67,10.52,3.83,9.1,3.55,17.01-.35,16.51-1-.13-2.21-.92-2.84-2.1-9.69-18.1-31.98-.84-45.72,13.62-15.82,16.64-28.47,35.32-39.89,55.3-5.55,9.71-14.57,28.02-11.41,33,2.83,4.46,8.83-2.39,12.9-6.34Z"/>
    <path class="cls-1" d="M873.54,556.58l-17.53.03,1.31-12.15c.04-.38.09-1.04.13-1.54,7.53-29.28,27.29-55.42,31.77-86.59-6.01,2.63-9.86,7.6-12.06,13.18l-9.53,24.13c-9.71,24.61-16.81,47.32-45.51,54.36-3.89.95-7.75,3.39-12.06.49,2.46-5.79,6.8-10.47,11.42-14.67,14.63-13.31,25.34-28.7,34.35-46.4l19.98-39.28-7.23-9.43c-1.33-15.62,17.24-27.3,32.04-29.72,3.44-.56,9.89,3.07,7.69,6.73-5.51,9.15-14.95,25.23-11.78,30.66,2.9,4.96,13.36,5.02,16.18,10.17,9.72,17.79-29.86,67.91-39.15,100.03Z"/>
    <path class="cls-1" d="M613.67,553.6c13.83-32.8,51.86-73.45,55.09-97.29.74-5.47,5.7-7.98,10.71-6.65,8.94,2.37,16.67,11.28,13.9,21.35s-7.62,19.77-14.03,28.39l-30.6,41.12c-7.7,10.34-16.27,19.43-21.6,32.82,12.17-5.72,20.64-16.08,29.55-26.01,15.43-17.19,29.22-34.89,42.56-53.75l18.03-29.25c2.44-3.96,2.63-9.32,3.25-13.44,5.07-3.4,13.12-3.16,18.78-1.57,24.1,6.77,1.13,41.34-13.48,58.45l-34.06,39.89c-4.97,5.82-9.24,12.11-9.32,20.07,3.89.82,6.99-.75,10.04-2.56,14.4-8.55,26.68-19.08,39.51-30.28,3.91-23.76,11.78-46.07,26.08-65.45,13.92-18.87,36.67-37.14,60.24-36.59,9.12.22,15.61,5.23,18.05,14.02,3.19,11.46,1.24,23.28-3.57,34.54-9.7,22.72-29.04,39.21-52.34,47.34-7.86,2.75-15.16,3.84-23.7,3.18-2.64,10.11-3.73,21.61,3.3,25.36,13.26,7.08,44.57-16.57,57.37-32.92,2.12-2.7,4.16-5.47,8.1-3.76-3.09,7.92-8.58,13.2-14.13,18.95-18.17,18.83-53.02,44.05-69.43,21.66-4.56-6.22-6.73-13.26-8.51-20.92-12.76,15.81-40.18,39.57-57.31,39.66-14.1.07-9.87-19.31-6.39-34.21-12.71,13.84-30.23,35.8-45.32,40.07-6.62,1.87-12.83-1.43-14.23-8.46-1.58-7.97.23-16.11,3.45-23.74ZM822.94,447.54c.18-2.39-4.97-.54-6.26.66l-15.77,14.67c-13.7,14.83-26.18,30.16-36.31,47.62-1.81,3.12-3.25,6.27-1.75,9.91,23.03.33,38.35-26.77,49.73-47.05,4.47-7.98,9.63-16.13,10.37-25.81Z"/>
    <path class="cls-4" d="M556.78,616.28l-12.02,23.36-2.07,4.37c-10.02,23.34-15.4,45.53-18.96,71.31-8.38,12.02-13.58-15.96-13.85-21.99-.52-11.8,10-48.65,12.72-57.26l10.2-23.55c4.75-8.07,10.04-15.36,13.36-25.05-11.26,6.98-20.96,14.14-31.36,4.34-13.94-13.14-4.54-41.28,5.66-58.46,12.26-20.67,26.51-39.31,44.45-55.28,16.06-14.3,45.54-28.55,59.51-15.51,7.68,7.17,7.58,18.46,3.91,19.1-1.24.21-2.97-.28-3.6-1.66-7.03-15.42-27.5.03-39.42,12.93-19.79,21.42-36.61,45.12-49.53,71.32-2.83,5.73-6.15,11.53-5.3,18.32.8,6.4,25.3-13.74,34.64-27.09,19.35-27.65,42.04-57.15,74.82-68.13,2.66,1.13.71,4.85-.65,6.68l-27.73,37.43c-20.23,27.3-39.27,54.71-54.76,84.8Z"/>
  </g>
</svg>